<svg xmlns="http://www.w3.org/2000/svg" viewBox="0 0 100 100" fill="currentColor">
 <path d="m12.5 24.352c0-0.55078 0.22656-1.0508 0.57422-1.3984 1.75-1.8984 8-4.875 16.148-7 6.125-1.6016 13.426-2.7734 20.773-2.7734 7.3516 0 14.648 1.1758 20.773 2.7734 8.1484 2.125 14.398 5.1016 16.148 7 0.35156 0.35156 0.57422 0.85156 0.57422 1.3984v32.125c0 0.17578-0.023438 0.32422-0.050782 0.47656-1.2734 5.25-7.75 14.227-16.125 20.898-6.3984 5.125-13.977 8.9766-21.324 8.9766-7.3516 0-14.926-3.8516-21.324-8.9766-8.2734-6.6016-14.699-15.449-16.074-20.727-0.050781-0.19922-0.10156-0.42578-0.10156-0.64844v-32.125zm3.9492 0.77344v31.125c1.25 4.6016 7.1016 12.449 14.676 18.5 5.8008 4.625 12.523 8.125 18.875 8.125s13.074-3.5 18.875-8.125c7.5742-6.0508 13.426-13.898 14.676-18.5v-31.125c-1.6484-1.375-6.8242-3.5508-13.75-5.3516-5.8242-1.5-12.773-2.6484-19.801-2.6484-7.0234 0-13.977 1.1484-19.801 2.6484-6.9258 1.8008-12.102 3.9766-13.75 5.3516zm18.602 22.625c-0.80078-0.75-0.82422-2-0.074219-2.8008 0.75-0.77344 2-0.80078 2.8008-0.050781l10.699 10.199 16.398-20.523c0.67578-0.85156 1.8984-0.97656 2.75-0.30078 0.85156 0.67578 1 1.9258 0.32422 2.7734l-17.676 22.074c-0.050782 0.074218-0.125 0.14844-0.17578 0.22656-0.75 0.80078-2.0234 0.82422-2.8008 0.074219l-12.25-11.676z"/>
</svg>
