<svg xmlns="http://www.w3.org/2000/svg" viewBox="0 0 100 100" fill="currentColor">
 <g>
  <path d="m78.77 31.078c3.125 0 5.668-2.543 5.668-5.668v-17.242c0-3.125-2.543-5.668-5.668-5.668h-57.539c-3.125 0-5.668 2.543-5.668 5.668v17.242c0 3.125 2.543 5.668 5.668 5.668h0.66797v4.6328h-0.66797c-3.125 0-5.668 2.543-5.668 5.668v17.242c0 3.125 2.543 5.668 5.668 5.668h0.66797v4.6328h-0.66797c-3.125 0-5.668 2.543-5.668 5.668v17.242c0 3.125 2.543 5.668 5.668 5.668h57.539c3.125 0 5.668-2.543 5.668-5.668v-17.242c0-3.125-2.543-5.668-5.668-5.668h-0.66797v-4.6328h0.66797c3.125 0 5.668-2.543 5.668-5.668v-17.242c0-3.125-2.543-5.668-5.668-5.668h-0.66797v-4.6328zm0 42.844c0.36719 0 0.66797 0.30078 0.66797 0.66797v17.242c0 0.36719-0.30078 0.66797-0.66797 0.66797h-57.539c-0.36719 0-0.66797-0.30078-0.66797-0.66797v-17.242c0-0.36719 0.30078-0.66797 0.66797-0.66797zm-51.871-5v-4.6328h46.203v4.6328zm51.871-28.211c0.36719 0 0.66797 0.30078 0.66797 0.66797v17.242c0 0.36719-0.30078 0.66797-0.66797 0.66797h-57.539c-0.36719 0-0.66797-0.30078-0.66797-0.66797v-17.242c0-0.36719 0.30078-0.66797 0.66797-0.66797zm-51.871-5v-4.6328h46.203v4.6328zm-5.668-9.6328c-0.36719 0-0.66797-0.30078-0.66797-0.66797v-17.242c0-0.36719 0.30078-0.66797 0.66797-0.66797h57.539c0.36719 0 0.66797 0.30078 0.66797 0.66797v17.242c0 0.36719-0.30078 0.66797-0.66797 0.66797z"/>
  <path d="m72.301 14.289h-3.1016c-1.3828 0-2.5 1.1172-2.5 2.5 0 1.3828 1.1172 2.5 2.5 2.5h3.1016c1.3828 0 2.5-1.1172 2.5-2.5 0-1.3828-1.1172-2.5-2.5-2.5z"/>
  <path d="m61.691 14.289h-3.1016c-1.3828 0-2.5 1.1172-2.5 2.5 0 1.3828 1.1172 2.5 2.5 2.5h3.1016c1.3828 0 2.5-1.1172 2.5-2.5 0-1.3828-1.1211-2.5-2.5-2.5z"/>
  <path d="m51.078 14.289h-3.1016c-1.3828 0-2.5 1.1172-2.5 2.5 0 1.3828 1.1172 2.5 2.5 2.5h3.1016c1.3828 0 2.5-1.1172 2.5-2.5 0-1.3828-1.1172-2.5-2.5-2.5z"/>
  <path d="m69.199 52.5h3.1016c1.3828 0 2.5-1.1172 2.5-2.5s-1.1172-2.5-2.5-2.5h-3.1016c-1.3828 0-2.5 1.1172-2.5 2.5s1.1172 2.5 2.5 2.5z"/>
  <path d="m58.586 52.5h3.1016c1.3828 0 2.5-1.1172 2.5-2.5s-1.1172-2.5-2.5-2.5h-3.1016c-1.3828 0-2.5 1.1172-2.5 2.5s1.1211 2.5 2.5 2.5z"/>
  <path d="m47.977 52.5h3.1016c1.3828 0 2.5-1.1172 2.5-2.5s-1.1172-2.5-2.5-2.5h-3.1016c-1.3828 0-2.5 1.1172-2.5 2.5s1.1172 2.5 2.5 2.5z"/>
  <path d="m69.199 85.711h3.1016c1.3828 0 2.5-1.1172 2.5-2.5 0-1.3828-1.1172-2.5-2.5-2.5h-3.1016c-1.3828 0-2.5 1.1172-2.5 2.5 0 1.3828 1.1172 2.5 2.5 2.5z"/>
  <path d="m58.586 85.711h3.1016c1.3828 0 2.5-1.1172 2.5-2.5 0-1.3828-1.1172-2.5-2.5-2.5h-3.1016c-1.3828 0-2.5 1.1172-2.5 2.5 0 1.3828 1.1211 2.5 2.5 2.5z"/>
  <path d="m47.977 85.711h3.1016c1.3828 0 2.5-1.1172 2.5-2.5 0-1.3828-1.1172-2.5-2.5-2.5h-3.1016c-1.3828 0-2.5 1.1172-2.5 2.5 0 1.3828 1.1172 2.5 2.5 2.5z"/>
 </g>
</svg>
