<svg xmlns="http://www.w3.org/2000/svg" viewBox="0 0 100 100" fill="currentColor">
 <path d="m81.02 15.543h-62.039c-5.6445 0-10.25 4.6055-10.25 10.25v48.438c0 5.6445 4.6055 10.25 10.25 10.25h62.043c5.6445 0 10.25-4.6055 10.25-10.25l-0.003907-48.438c0-5.6445-4.6055-10.25-10.25-10.25zm6.082 58.688c0 3.3555-2.7305 6.082-6.082 6.082h-62.039c-3.3555 0-6.082-2.7305-6.082-6.082l-0.003907-48.438c0-3.3555 2.7305-6.082 6.082-6.082h62.043c3.3555 0 6.082 2.7305 6.082 6.082z"/>
 <path d="m69.27 48.188-31.605-17.605c-0.64453-0.35547-1.4375-0.35547-2.0625 0.019531-0.64453 0.375-1.0195 1.0625-1.0195 1.793v35.23c0 0.73047 0.39453 1.418 1.0195 1.793 0.33203 0.1875 0.6875 0.29297 1.0625 0.29297s0.70703-0.082032 1.0195-0.26953l31.605-17.605c0.66797-0.375 1.0625-1.0625 1.0625-1.8125s-0.41797-1.457-1.0625-1.8125zm-30.543 15.875v-28.125l25.25 14.062z"/>
</svg>
