<svg xmlns="http://www.w3.org/2000/svg" viewBox="0 0 100 100" fill="currentColor">
 <g>
  <path d="m50 38.34c-9.4844 0-18.445-1.3594-25.234-3.8203-3.4766-1.2578-6.2578-2.7734-8.25-4.4844-3.0664-2.6367-3.7109-5.293-3.7109-7.0625 0-1.7695 0.64453-4.4336 3.7109-7.0625 1.9922-1.7109 4.7734-3.2227 8.25-4.4844 6.7891-2.4492 15.75-3.8086 25.234-3.8086s18.445 1.3594 25.234 3.8203c3.4766 1.2578 6.2578 2.7734 8.25 4.4844 3.0664 2.6367 3.7109 5.293 3.7109 7.0625s-0.64453 4.4336-3.7109 7.0625c-1.9922 1.7109-4.7734 3.2227-8.25 4.4844-6.7891 2.4531-15.75 3.8086-25.234 3.8086zm0-24.863c-8.8203 0-17.07 1.2305-23.234 3.4688-5.9844 2.168-8.1055 4.6094-8.1055 6.0352s2.1172 3.8672 8.1055 6.0352c6.1641 2.2344 14.414 3.4688 23.234 3.4688s17.07-1.2305 23.234-3.4688c5.9844-2.168 8.1055-4.6094 8.1055-6.0352s-2.1172-3.8672-8.1055-6.0352c-6.1641-2.2383-14.418-3.4688-23.234-3.4688z"/>
  <path d="m50 56.348c-9.4844 0-18.445-1.3594-25.234-3.8203-3.4766-1.2578-6.2578-2.7734-8.25-4.4844-3.0664-2.6367-3.7109-5.293-3.7109-7.0625h5.8594c0 1.4258 2.1172 3.8672 8.1055 6.0352 6.1602 2.2422 14.41 3.4727 23.23 3.4727s17.07-1.2305 23.234-3.4688c5.9844-2.168 8.1055-4.6094 8.1055-6.0352h5.8594c0 1.7695-0.64453 4.4219-3.7109 7.0625-1.9922 1.7109-4.7734 3.2227-8.25 4.4844-6.793 2.4688-15.754 3.8164-25.238 3.8164z"/>
  <path d="m50 74.367c-9.4844 0-18.445-1.3594-25.234-3.8203-3.4766-1.2578-6.2578-2.7734-8.25-4.4844-3.0664-2.6367-3.7109-5.293-3.7109-7.0625h5.8594c0 1.4258 2.1172 3.8672 8.1055 6.0352 6.1641 2.2344 14.414 3.4688 23.234 3.4688 8.8164 0 17.07-1.2305 23.234-3.4688 5.9844-2.168 8.1055-4.6094 8.1055-6.0352h5.8594c0 1.7695-0.64453 4.4219-3.7109 7.0625-1.9922 1.7109-4.7734 3.2227-8.25 4.4844-6.7969 2.4609-15.758 3.8203-25.242 3.8203z"/>
  <path d="m50 92.383c-9.4844 0-18.445-1.3594-25.234-3.8203-3.4766-1.2578-6.25-2.7617-8.25-4.4805-3.0664-2.6367-3.7109-5.293-3.7109-7.0625v-54.043h5.8594c0 1.4258 2.1172 3.8672 8.1055 6.0352 6.1641 2.2344 14.414 3.4688 23.234 3.4688 8.8203 0 17.07-1.2305 23.234-3.4688 5.9844-2.168 8.1055-4.6094 8.1055-6.0352h5.8594v54.043c0 1.7695-0.64453 4.4336-3.7109 7.0625-1.9922 1.7109-4.7734 3.2227-8.25 4.4844-6.7969 2.457-15.758 3.8164-25.242 3.8164zm-31.336-60.773v45.41c0 1.4258 2.1172 3.8672 8.1055 6.0352 6.1602 2.2383 14.41 3.4688 23.23 3.4688s17.07-1.2305 23.234-3.4688c5.9844-2.168 8.1055-4.6094 8.1055-6.0352v-45.41c-1.6875 1.0742-3.7383 2.0508-6.1133 2.9102-6.7891 2.4609-15.742 3.8203-25.234 3.8203-9.4844 0-18.445-1.3594-25.234-3.8203-2.3555-0.85547-4.4062-1.832-6.0938-2.9102z"/>
 </g>
</svg>
