<?xml version="1.0" encoding="UTF-8"?>
<svg id="Layer_2" data-name="Layer 2" xmlns="http://www.w3.org/2000/svg" viewBox="0 0 100 99.52">
  <g id="Layer_1-2" data-name="Layer 1">
    <g>
      <path d="M3.12,25c-1.73,0-3.12-1.4-3.12-3.12V3.12C0,1.4,1.4,0,3.12,0h18.75c1.73,0,3.12,1.4,3.12,3.12v18.75c0,1.73-1.4,3.12-3.12,3.12H3.12Z"/>
      <path d="M78.12,99.52c-1.73,0-3.12-1.4-3.12-3.12v-18.75c0-1.73,1.4-3.12,3.12-3.12h18.75c1.73,0,3.12,1.4,3.12,3.12v18.75c0,1.73-1.4,3.12-3.12,3.12h-18.75Z"/>
      <path d="M40.62,25c-1.73,0-3.12-1.4-3.12-3.12V3.12c0-1.73,1.4-3.12,3.12-3.12h18.75c1.73,0,3.12,1.4,3.12,3.12v18.75c0,1.73-1.4,3.12-3.12,3.12h-18.75Z"/>
      <path d="M78.12,25c-1.73,0-3.12-1.4-3.12-3.12V3.12c0-1.73,1.4-3.12,3.12-3.12h18.75c1.73,0,3.12,1.4,3.12,3.12v18.75c0,1.73-1.4,3.12-3.12,3.12h-18.75Z"/>
      <path d="M40.62,62.02c-1.73,0-3.12-1.4-3.12-3.12v-18.75c0-1.73,1.4-3.12,3.12-3.12h18.75c1.73,0,3.12,1.4,3.12,3.12v18.75c0,1.73-1.4,3.12-3.12,3.12h-18.75Z"/>
      <path d="M78.12,62.02c-1.73,0-3.12-1.4-3.12-3.12v-18.75c0-1.73,1.4-3.12,3.12-3.12h18.75c1.73,0,3.12,1.4,3.12,3.12v18.75c0,1.73-1.4,3.12-3.12,3.12h-18.75Z"/>
      <path d="M40.62,99.52c-1.73,0-3.12-1.4-3.12-3.12v-18.75c0-1.73,1.4-3.12,3.12-3.12h18.75c1.73,0,3.12,1.4,3.12,3.12v18.75c0,1.73-1.4,3.12-3.12,3.12h-18.75Z"/>
    </g>
  </g>
</svg>