<?xml version="1.0" encoding="UTF-8"?>
<svg width="100pt" height="100pt" version="1.1" viewBox="0 0 100 100" xmlns="http://www.w3.org/2000/svg">
 <g>
  <path d="m5 37.68c0 1.9414 0.76953 3.8047 2.1445 5.1758 1.3711 1.375 3.2344 2.1445 5.1758 2.1445h25.359c1.9414 0 3.8047-0.76953 5.1758-2.1445 1.375-1.3711 2.1445-3.2344 2.1445-5.1758v-25.359c0-4.043-3.2773-7.3203-7.3203-7.3203h-25.359c-1.9414 0-3.8047 0.76953-5.1758 2.1445-1.375 1.3711-2.1445 3.2344-2.1445 5.1758zm5-25.359c0-1.2812 1.0391-2.3203 2.3203-2.3203h25.359c1.2812 0 2.3203 1.0391 2.3203 2.3203v25.359c0 1.2812-1.0391 2.3203-2.3203 2.3203h-25.359c-1.2812 0-2.3203-1.0391-2.3203-2.3203z"/>
  <path d="m95 12.32c0-1.9414-0.76953-3.8047-2.1445-5.1758-1.3711-1.375-3.2344-2.1445-5.1758-2.1445h-25.359c-4.043 0-7.3203 3.2773-7.3203 7.3203v25.359c0 1.9414 0.76953 3.8047 2.1445 5.1758 1.3711 1.375 3.2344 2.1445 5.1758 2.1445h25.359c1.9414 0 3.8047-0.76953 5.1758-2.1445 1.375-1.3711 2.1445-3.2344 2.1445-5.1758zm-5 25.359c0 1.2812-1.0391 2.3203-2.3203 2.3203h-25.359c-1.2812 0-2.3203-1.0391-2.3203-2.3203v-25.359c0-1.2812 1.0391-2.3203 2.3203-2.3203h25.359c1.2812 0 2.3203 1.0391 2.3203 2.3203z"/>
  <path d="m5 87.68c0 1.9414 0.76953 3.8047 2.1445 5.1758 1.3711 1.375 3.2344 2.1445 5.1758 2.1445h25.359c1.9414 0 3.8047-0.76953 5.1758-2.1445 1.375-1.3711 2.1445-3.2344 2.1445-5.1758v-25.359c0-4.043-3.2773-7.3203-7.3203-7.3203h-25.359c-1.9414 0-3.8047 0.76953-5.1758 2.1445-1.375 1.3711-2.1445 3.2344-2.1445 5.1758zm5-25.359c0-1.2812 1.0391-2.3203 2.3203-2.3203h25.359c1.2812 0 2.3203 1.0391 2.3203 2.3203v25.359c0 1.2812-1.0391 2.3203-2.3203 2.3203h-25.359c-1.2812 0-2.3203-1.0391-2.3203-2.3203z"/>
  <path d="m95 87.68v-25.359c0-1.9414-0.76953-3.8047-2.1445-5.1758-1.3711-1.375-3.2344-2.1445-5.1758-2.1445h-25.359c-4.043 0-7.3203 3.2773-7.3203 7.3203v25.359c0 1.9414 0.76953 3.8047 2.1445 5.1758 1.3711 1.375 3.2344 2.1445 5.1758 2.1445h25.359c1.9414 0 3.8047-0.76953 5.1758-2.1445 1.375-1.3711 2.1445-3.2344 2.1445-5.1758zm-5 0c0 1.2812-1.0391 2.3203-2.3203 2.3203h-25.359c-1.2812 0-2.3203-1.0391-2.3203-2.3203v-25.359c0-1.2812 1.0391-2.3203 2.3203-2.3203h25.359c1.2812 0 2.3203 1.0391 2.3203 2.3203z"/>
 </g>
</svg>
