<?xml version="1.0" encoding="UTF-8"?>
<svg width="100pt" height="100pt" version="1.1" viewBox="0 0 100 100" xmlns="http://www.w3.org/2000/svg">
 <g>
  <path d="m85.172 29.875h-70.344c-1.625 0-2.9375-1.3125-2.9375-2.9375v-24c0-1.625 1.3125-2.9375 2.9375-2.9375h70.344c1.625 0 2.9375 1.3125 2.9375 2.9375v24c0 1.625-1.3125 2.9375-2.9375 2.9375zm-67.406-5.875h64.453v-18.125h-64.453z"/>
  <path d="m74.875 17.875h-5.875c-1.625 0-2.9375-1.3125-2.9375-2.9375s1.3125-2.9375 2.9375-2.9375h5.875c1.625 0 2.9375 1.3125 2.9375 2.9375 0.015625 1.625-1.3125 2.9375-2.9375 2.9375z"/>
  <path d="m53.375 17.875h-27.766c-1.625 0-2.9375-1.3125-2.9375-2.9375s1.3125-2.9375 2.9375-2.9375h27.766c1.625 0 2.9375 1.3125 2.9375 2.9375 0.015625 1.625-1.3125 2.9375-2.9375 2.9375z"/>
  <path d="m85.172 64.938h-70.344c-1.625 0-2.9375-1.3125-2.9375-2.9375v-24c0-1.625 1.3125-2.9375 2.9375-2.9375h70.344c1.625 0 2.9375 1.3125 2.9375 2.9375v23.984c0 1.6406-1.3125 2.9531-2.9375 2.9531zm-67.406-5.8906h64.453v-18.109h-64.453z"/>
  <path d="m74.875 52.938h-5.875c-1.625 0-2.9375-1.3125-2.9375-2.9375s1.3125-2.9375 2.9375-2.9375h5.875c1.625 0 2.9375 1.3125 2.9375 2.9375 0.015625 1.625-1.3125 2.9375-2.9375 2.9375z"/>
  <path d="m53.375 52.938h-27.766c-1.625 0-2.9375-1.3125-2.9375-2.9375s1.3125-2.9375 2.9375-2.9375h27.766c1.625 0 2.9375 1.3125 2.9375 2.9375 0.015625 1.625-1.3125 2.9375-2.9375 2.9375z"/>
  <path d="m85.172 100h-70.344c-1.625 0-2.9375-1.3125-2.9375-2.9375v-24c0-1.625 1.3125-2.9375 2.9375-2.9375h70.344c1.625 0 2.9375 1.3125 2.9375 2.9375v23.984c0 1.6406-1.3125 2.9531-2.9375 2.9531zm-67.406-5.875h64.453v-18.109h-64.453z"/>
  <path d="m74.875 88h-5.875c-1.625 0-2.9375-1.3125-2.9375-2.9375s1.3125-2.9375 2.9375-2.9375h5.875c1.625 0 2.9375 1.3125 2.9375 2.9375 0.015625 1.625-1.3125 2.9375-2.9375 2.9375z"/>
  <path d="m53.375 88h-27.766c-1.625 0-2.9375-1.3125-2.9375-2.9375s1.3125-2.9375 2.9375-2.9375h27.766c1.625 0 2.9375 1.3125 2.9375 2.9375 0.015625 1.625-1.3125 2.9375-2.9375 2.9375z"/>
 </g>
</svg>
