<?xml version="1.0" encoding="UTF-8"?>
<svg width="100pt" height="100pt" version="1.1" viewBox="0 0 100 100" xmlns="http://www.w3.org/2000/svg">
 <path d="m89.109 8.9844c-0.47266-0.82031-1.3477-1.3242-2.293-1.3242h-73.637c-0.94531 0-1.8203 0.50391-2.293 1.3242-0.47266 0.82031-0.47266 1.8281 0 2.6445l25.125 43.52 0.003906 34.547c0 0.92188 0.48047 1.7773 1.2656 2.2578 0.42188 0.25781 0.90234 0.39062 1.3828 0.39062 0.41406 0 0.82422-0.097656 1.2031-0.28906l22.672-11.582c0.88672-0.45312 1.4414-1.3633 1.4414-2.3555l0.003906-22.969 25.125-43.52c0.47266-0.81641 0.47266-1.8281 0-2.6445zm-30.066 44.133c-0.23438 0.40234-0.35547 0.85937-0.35547 1.3242v22.051l-17.383 8.8789 0.003906-30.93c0-0.46484-0.12109-0.92188-0.35547-1.3242l-23.188-40.164h64.469z"/>
</svg>
