<?xml version="1.0" encoding="UTF-8"?>
<svg width="100pt" height="100pt" version="1.1" viewBox="0 0 100 100" xmlns="http://www.w3.org/2000/svg">
 <path d="m34.5 50c0 15.012-10.281 23.758-10.719 24.125l-1.2812-1.5352-1.2852-1.5312c0.050781-0.039063 2.6406-2.2852 5.0703-6.3047l-21.285-0.003906c-0.82812 0-1.5-0.67188-1.5-1.5s0.67188-1.5 1.5-1.5h22.879c1.4766-3.2031 2.6211-7.1484 2.6211-11.75 0-5.2461-1.3125-9.957-2.9062-13.75h-22.594c-0.82812 0-1.5-0.67188-1.5-1.5s0.67188-1.5 1.5-1.5h21.191c-2.1094-4.0859-4.2109-6.5391-4.2539-6.5898l3.0195-2.625c0.39062 0.44922 9.543 11.137 9.543 25.965zm62 0c0 0.82812-0.67188 1.5-1.5 1.5h-14.391c-3.2734 5.2461-15.453 22.5-34.109 22.5h-19s10-9.75 10-24-10-26-10-26h19c18.574 0 32.512 21.02 34.691 24.5h13.809c0.82812 0 1.5 0.67188 1.5 1.5zm-19.852 0.25391c-0.015626-0.082031-0.023438-0.16406-0.023438-0.25 0-0.29688 0.089844-0.57031 0.23828-0.80469-3.7031-5.457-15.66-21.199-30.363-21.199h-11.445c3.0234 5.2344 6.4492 13.125 6.4492 22 0 8.3516-3.0195 15.273-5.9297 20h10.926c15.637 0 26.516-14.223 30.148-19.746z"/>
</svg>
