<?xml version="1.0" encoding="UTF-8"?>
<svg width="100pt" height="100pt" version="1.1" viewBox="0 0 100 100" xmlns="http://www.w3.org/2000/svg">
 <path d="m50 77.082c-3.4375 0-6.25 2.8125-6.25 6.25s2.8125 6.25 6.25 6.25 6.25-2.8125 6.25-6.25-2.8125-6.25-6.25-6.25zm0 8.3359c-1.1445 0-2.082-0.9375-2.082-2.082 0-1.1445 0.9375-2.082 2.082-2.082s2.082 0.9375 2.082 2.082c0 1.1445-0.9375 2.082-2.082 2.082z"/>
 <path d="m87.5 81.25h-25c-1.1445 0-2.082 0.9375-2.082 2.082s0.9375 2.082 2.082 2.082h25c1.1445 0 2.082-0.9375 2.082-2.082s-0.9375-2.082-2.082-2.082z"/>
 <path d="m37.5 81.25h-25c-1.1445 0-2.082 0.9375-2.082 2.082s0.9375 2.082 2.082 2.082h25c1.1445 0 2.082-0.9375 2.082-2.082s-0.9375-2.082-2.082-2.082z"/>
 <path d="m47.918 62.5v8.332c0 1.1445 0.9375 2.082 2.082 2.082s2.082-0.9375 2.082-2.082v-8.332c0-1.1445-0.9375-2.082-2.082-2.082s-2.082 0.9375-2.082 2.082z"/>
 <path d="m29.707 48.293 19.52 7.8125c0.25 0.10547 0.51953 0.14453 0.76953 0.14453s0.51953-0.042969 0.76953-0.14453l19.52-7.8125c1.582-0.64453 2.625-2.1445 2.625-3.875v-22.188c0-1.707-1.0195-3.2305-2.625-3.875l-19.52-7.8125c-0.5-0.1875-1.043-0.1875-1.543 0l-19.52 7.8125c-1.582 0.64453-2.625 2.1445-2.625 3.875v22.188c0 1.707 1.0195 3.2305 2.625 3.875zm22.375 2.7891v-20.52l16.668-6.668v20.52zm-2.082-36.332 15.23 6.082-15.23 6.082-15.23-6.082zm-18.75 9.168 16.668 6.668v20.52l-16.668-6.668z"/>
</svg>
