<?xml version="1.0" encoding="UTF-8"?>
<svg id="Layer_2" data-name="Layer 2" xmlns="http://www.w3.org/2000/svg" viewBox="0 0 147.03 144.66">
  <defs>
    <style>
      .cls-1 {
        fill: #010101;
      }
    </style>
  </defs>
  <g id="Layer_1-2" data-name="Layer 1">
    <path class="cls-1" d="M139.32,46.36v-15.46h-7.73v-7.71h-7.73v-7.73h-7.73v-7.73h-15.44V0h-54.34v7.73h-15.44v7.73h-7.73v7.73h-7.73v7.71h-7.73v15.46H0v51.96h7.71v15.44h7.73v7.73h7.73v7.73h7.73v7.73h15.44v7.71h54.34v-7.71h15.44v-7.73h7.73v-7.73h7.73v-7.73h7.73v-15.44h7.71v-51.96h-7.71ZM73.52,126.33c-29.82,0-54-24.18-54-54s24.18-54,54-54,54,24.18,54,54-24.18,54-54,54Z"/>
    <polygon class="cls-1" points="99.78 66.6 99.78 78.17 79.35 78.17 79.35 98.59 67.78 98.59 67.78 78.17 47.26 78.17 47.26 66.6 67.78 66.6 67.78 46.07 79.35 46.07 79.35 66.6 99.78 66.6"/>
  </g>
</svg>