<?xml version="1.0" encoding="UTF-8"?>
<svg width="100pt" height="100pt" version="1.1" viewBox="0 0 100 100" xmlns="http://www.w3.org/2000/svg">
 <g>
  <path d="m79.039 57.352 14.781-5.8281c1.375-0.54688 1.375-2.4922 0-3.0391l-14.781-5.8281c-5.2969-2.0859-9.4922-6.2812-11.578-11.578l-5.8281-14.781c-0.27344-0.6875-0.89844-1.0312-1.5156-1.0312-0.61719 0-1.25 0.34375-1.5156 1.0312l-5.8281 14.781c-2.0859 5.2969-6.2812 9.4922-11.578 11.578l-14.781 5.8281c-1.375 0.54688-1.375 2.4922 0 3.0391l14.781 5.8281c5.2969 2.0859 9.4922 6.2812 11.578 11.578l5.8281 14.781c0.27344 0.6875 0.89844 1.0312 1.5156 1.0312 0.61719 0 1.25-0.34375 1.5156-1.0312l5.8281-14.781c2.0859-5.2969 6.2812-9.4922 11.578-11.578z"/>
  <path d="m24.102 35.664-3.8906-7.1172c-0.054688-0.10156-0.14063-0.1875-0.25-0.25l-7.1172-3.8906c-1-0.54688-1-1.9766 0-2.5234l7.1172-3.8906c0.10156-0.054688 0.1875-0.14063 0.24219-0.24219l3.8906-7.1172c0.54688-1 1.9766-1 2.5234 0l3.8906 7.1172c0.054688 0.10156 0.14063 0.1875 0.25 0.25l7.1172 3.8906c1 0.54688 1 1.9766 0 2.5234l-7.1172 3.8906c-0.10156 0.054687-0.1875 0.14062-0.24219 0.24219l-3.8906 7.1172c-0.54688 1-1.9766 1-2.5234 0z"/>
  <path d="m21.195 85.508-2.9531-5.3984c-0.046876-0.078125-0.10938-0.14062-0.1875-0.1875l-5.3984-2.9531c-0.75781-0.41406-0.75781-1.5 0-1.9141l5.3984-2.9531c0.078124-0.046874 0.14062-0.10937 0.1875-0.1875 0 0 2.9531-5.3984 2.9531-5.3984 0.41406-0.75781 1.5-0.75781 1.9141 0l2.9531 5.3984c0.046875 0.078126 0.10938 0.14063 0.1875 0.1875l5.3984 2.9531c0.75781 0.41406 0.75781 1.5 0 1.9141l-5.3984 2.9531c-0.078125 0.039063-0.14062 0.10938-0.1875 0.1875l-2.9531 5.3984c-0.41406 0.75781-1.5 0.75781-1.9141 0z"/>
 </g>
</svg>
