<?xml version="1.0" encoding="UTF-8"?>
<svg width="100pt" height="100pt" version="1.1" viewBox="0 0 100 100" xmlns="http://www.w3.org/2000/svg">
 <path d="m69.957 87.418h6.293c3.457 0 6.293-2.832 6.293-6.293v-44.082c0-2.207-0.875-4.375-2.457-5.918l-13.707-13.707v12.664c0 2.625-2.375 4.793-5.25 4.793h-22.254c-2.875 0-5.25-2.168-5.25-4.793v-17.5h-9.875c-3.457 0-6.293 2.832-6.293 6.293v62.25c0 3.457 2.832 6.293 6.293 6.293h6.293v-29.875c0-3.375 2.75-6.125 6.168-6.125h27.582c3.418 0 6.168 2.75 6.168 6.125v25.707z"/>
 <path d="m36.207 55.582c-1.082 0-2 0.875-2 1.957v29.875h31.582v-29.875c0-1.082-0.91797-1.957-2-1.957z"/>
 <path d="m61.125 30.707c0.66797 0 1.082-0.375 1.082-0.625v-16.375c-1.25-0.75-2.668-1.125-4.125-1.125h-20.289v17.5c0 0.25 0.41797 0.625 1.082 0.625z"/>
</svg>
