<?xml version="1.0" encoding="UTF-8"?>
<svg width="100pt" height="100pt" version="1.1" viewBox="0 0 100 100" xmlns="http://www.w3.org/2000/svg">
 <path d="m55.418 68.219v-8.5078c0-2.3711 1.9336-4.3047 4.3047-4.3047h11.66c-0.33594 1.0664-0.73828 2.0586-0.73828 3.1445 0 2.8711 2.3516 5.2266 5.2227 5.2266 3.5156 0 6.0352-3.4414 4.9883-6.7812l-0.5-1.5898h11.66c2.3711 0 4.3047 1.9336 4.3047 4.3047v32.293c0 2.3711-1.9336 4.3047-4.3047 4.3047h-11.652c0.33203-1.0625 0.73047-2.0508 0.73047-3.1328 0-2.8711-2.3516-5.2227-5.2227-5.2227-3.5117 0-6.0312 3.4375-4.9883 6.7695l0.49609 1.5859h-11.652c-2.3711 0-4.3047-1.9336-4.3047-4.3047l-0.003906-11.98c-3.4258 2.5977-8.3711 0.12891-8.3711-4.1641 0-4.2891 4.9414-6.7617 8.3711-4.1641zm-23.648-12.812h8.5078c2.3711 0 4.3047 1.9336 4.3047 4.3047v11.66c-1.0664-0.33594-2.0586-0.73828-3.1445-0.73828-2.8711 0-5.2266 2.3516-5.2266 5.2227 0 3.5156 3.4414 6.0352 6.7812 4.9883l1.5898-0.5v11.66c0 2.3711-1.9336 4.3047-4.3047 4.3047h-32.293c-2.3711 0-4.3047-1.9336-4.3047-4.3047v-11.656c1.0625 0.33203 2.0508 0.73047 3.1328 0.73047 2.8711 0 5.2227-2.3516 5.2227-5.2227 0-3.5078-3.4336-6.0312-6.7695-4.9883l-1.5859 0.49609v-11.652c0-2.3711 1.9336-4.3047 4.3047-4.3047h11.98c-2.5977-3.4258-0.12891-8.3711 4.1641-8.3711 4.293 0 6.7617 4.9414 4.1641 8.3711zm13.793-23.625v8.5078c0 2.3711-1.9336 4.3047-4.3047 4.3047h-11.656c0.33594-1.0664 0.73828-2.0586 0.73828-3.1445 0-2.8711-2.3516-5.2266-5.2227-5.2266-3.5117 0-6.0352 3.4414-4.9883 6.7812l0.5 1.5898h-11.664c-2.3711 0-4.3047-1.9336-4.3047-4.3047l0.003906-32.293c0-2.3711 1.9336-4.3047 4.3047-4.3047h11.656c-0.33203 1.0625-0.73047 2.0508-0.73047 3.1328 0 2.8711 2.3516 5.2227 5.2227 5.2227 3.5117 0 6.0312-3.4375 4.9883-6.7695l-0.49609-1.5859h11.652c2.3711 0 4.3047 1.9336 4.3047 4.3047v11.98c3.4258-2.5977 8.3711-0.12891 8.3711 4.1641 0 4.2891-4.9414 6.7617-8.3711 4.1641zm22.668 12.812h-8.5078c-2.3711 0-4.3047-1.9336-4.3047-4.3047v-11.66c1.0664 0.33594 2.0586 0.73828 3.1445 0.73828 2.8711 0 5.2266-2.3516 5.2266-5.2227 0-3.5156-3.4414-6.0352-6.7812-4.9883l-1.5898 0.5v-11.66c0-2.3711 1.9336-4.3047 4.3047-4.3047h32.293c2.3711 0 4.3047 1.9336 4.3047 4.3047v11.656c-1.0625-0.33203-2.0508-0.73047-3.1328-0.73047-2.8711 0-5.2227 2.3516-5.2227 5.2227 0 3.5078 3.4336 6.0312 6.7695 4.9883l1.5859-0.49609v11.652c0 2.3711-1.9336 4.3047-4.3047 4.3047h-11.98c2.5977 3.4258 0.12891 8.3711-4.1641 8.3711-4.2891 0-6.7617-4.9414-4.1641-8.3711z" fill-rule="evenodd"/>
</svg>
