<?xml version="1.0" encoding="UTF-8"?>
<svg width="100pt" height="100pt" version="1.1" viewBox="0 0 100 100" xmlns="http://www.w3.org/2000/svg">
 <path d="m8.332 25c0-1.5352 0.84766-2.9492 2.2031-3.6719 1.3555-0.72656 2.9961-0.64844 4.2773 0.20312l31.02 20.684v-17.215c0-1.5352 0.84766-2.9492 2.2031-3.6719 1.3555-0.72656 2.9961-0.64844 4.2773 0.20312l37.5 25.004c1.1562 0.76953 1.8555 2.0703 1.8555 3.4648s-0.69922 2.6953-1.8555 3.4688l-37.5 25c-1.2812 0.85156-2.9219 0.92969-4.2773 0.20312-1.3555-0.72266-2.2031-2.1367-2.2031-3.6719v-17.215l-31.02 20.684c-1.2812 0.85156-2.9219 0.92969-4.2773 0.20312-1.3555-0.72266-2.2031-2.1367-2.2031-3.6719z"/>
</svg>
