<?xml version="1.0" encoding="UTF-8"?>
<svg width="100pt" height="100pt" version="1.1" viewBox="0 0 100 100" xmlns="http://www.w3.org/2000/svg">
 <path d="m47.434 9.2188c1.5078-1.1797 3.625-1.1797 5.1328 0l6.9141 5.4023 8.6875-1.2227c1.8945-0.26563 3.7305 0.79297 4.4453 2.5664l3.2852 8.1367 8.1367 3.2852c1.7734 0.71484 2.832 2.5508 2.5664 4.4453l-1.2227 8.6875 5.4023 6.9141c1.1797 1.5078 1.1797 3.625 0 5.1328l-5.4023 6.9141 1.2227 8.6875c0.26563 1.8945-0.79297 3.7305-2.5664 4.4453l-8.1367 3.2852-3.2852 8.1367c-0.71484 1.7734-2.5508 2.832-4.4453 2.5664l-8.6875-1.2227-6.9141 5.4023c-1.5078 1.1797-3.625 1.1797-5.1328 0l-6.9141-5.4023-8.6875 1.2227c-1.8945 0.26563-3.7305-0.79297-4.4453-2.5664l-3.2852-8.1367-8.1367-3.2852c-1.7734-0.71484-2.832-2.5508-2.5664-4.4453l1.2227-8.6875-5.4023-6.9141c-1.1797-1.5078-1.1797-3.625 0-5.1328l5.4023-6.9141-1.2227-8.6875c-0.26563-1.8945 0.79297-3.7305 2.5664-4.4453l8.1367-3.2852 3.2852-8.1367c0.71484-1.7734 2.5508-2.832 4.4453-2.5664l8.6875 1.2227zm18.012 35.395c1.6289-1.6289 1.6289-4.2656 0-5.8945-1.625-1.625-4.2656-1.625-5.8906 0l-13.723 13.723-5.3867-5.3867c-1.625-1.6289-4.2656-1.6289-5.8906 0-1.6289 1.625-1.6289 4.2656 0 5.8906l8.332 8.3359c1.6289 1.625 4.2656 1.625 5.8945 0z" fill-rule="evenodd"/>
</svg>
