<?xml version="1.0" encoding="UTF-8"?>
<svg width="100pt" height="100pt" version="1.1" viewBox="0 0 100 100" xmlns="http://www.w3.org/2000/svg">
 <g>
  <path d="m11.883 5h26.238c3.8008 0 6.8828 3.8008 6.8828 6.8828v26.238c0 3.8008-3.082 6.8828-6.8828 6.8828h-26.238c-3.8008 0-6.8828-3.8008-6.8828-6.8828v-26.238c0-3.8008 3.082-6.8828 6.8828-6.8828z"/>
  <path d="m61.883 5h26.238c3.8008 0 6.8828 3.8008 6.8828 6.8828v26.238c0 3.8008-3.082 6.8828-6.8828 6.8828h-26.238c-3.8008 0-6.8828-3.8008-6.8828-6.8828v-26.238c0-3.8008 3.082-6.8828 6.8828-6.8828z"/>
  <path d="m11.883 55h26.238c3.8008 0 6.8828 3.8008 6.8828 6.8828v26.238c0 3.8008-3.082 6.8828-6.8828 6.8828h-26.238c-3.8008 0-6.8828-3.8008-6.8828-6.8828v-26.238c0-3.8008 3.082-6.8828 6.8828-6.8828z"/>
  <path d="m61.883 55h26.238c3.8008 0 6.8828 3.8008 6.8828 6.8828v26.238c0 3.8008-3.082 6.8828-6.8828 6.8828h-26.238c-3.8008 0-6.8828-3.8008-6.8828-6.8828v-26.238c0-3.8008 3.082-6.8828 6.8828-6.8828z"/>
 </g>
</svg>
