<?xml version="1.0" encoding="UTF-8"?>
<svg width="100pt" height="100pt" version="1.1" viewBox="0 0 100 100" xmlns="http://www.w3.org/2000/svg">
 <g>
  <path d="m66.43 14.289v-0.92969c0-2.2148-0.87891-4.3398-2.4414-5.9102-1.5664-1.5664-3.6914-2.4492-5.9102-2.4492h-44.727c-2.2188 0-4.3438 0.88281-5.9062 2.4492-1.5664 1.5703-2.4453 3.6953-2.4453 5.9102v44.727c0 4.6133 3.7383 8.3477 8.3516 8.3516h0.92969v-38.801c0.007812-7.3672 5.9805-13.34 13.348-13.348z"/>
  <path d="m41.918 28.57h38.801v-0.93359c0-4.6094-3.7383-8.3477-8.3477-8.3477h-44.73c-2.2148 0-4.3438 0.87891-5.9102 2.4414-1.5664 1.5664-2.4492 3.6914-2.4492 5.9062v44.73c0 2.2148 0.88281 4.3398 2.4492 5.9062 1.5664 1.5664 3.6953 2.4453 5.9102 2.4414h0.92969v-38.797c0.007813-7.3672 5.9805-13.34 13.348-13.348z"/>
  <path d="m41.918 33.57h44.73c4.6133 0 8.3516 4.6133 8.3516 8.3516v44.727c0 4.6133-3.7383 8.3516-8.3516 8.3516h-44.73c-4.6133 0-8.3516-4.6133-8.3516-8.3516v-44.727c0-4.6133 3.7383-8.3516 8.3516-8.3516z"/>
 </g>
</svg>
