<?xml version="1.0" encoding="UTF-8"?>
<svg width="100pt" height="100pt" version="1.1" viewBox="0 0 100 100" xmlns="http://www.w3.org/2000/svg">
 <path d="m87.219 27.469c-0.125-0.30469-0.3125-0.58203-0.54688-0.8125l-22.031-21.969c-0.23047-0.23438-0.50781-0.42188-0.8125-0.54688-0.27344-0.11328-0.5625-0.17188-0.85938-0.17188h-42.547c-4.3164 0-7.8125 3.4961-7.8125 7.8125v76.562c0 2.0703 0.82422 4.0586 2.2891 5.5234 1.4648 1.4648 3.4531 2.2891 5.5234 2.2891h59.156c2.0703 0 4.0586-0.82422 5.5234-2.2891 1.4648-1.4648 2.2891-3.4531 2.2891-5.5234v-60c0-0.30078-0.058594-0.59766-0.17188-0.875zm-59.375 7.2344h22.156c1.293 0 2.3438 1.0508 2.3438 2.3438s-1.0508 2.3438-2.3438 2.3438h-22.094c-1.293 0-2.3438-1.0508-2.3438-2.3438s1.0508-2.3438 2.3438-2.3438zm44.25 43.531h-44.188c-1.293 0-2.3438-1.0508-2.3438-2.3438s1.0508-2.3438 2.3438-2.3438h44.188c1.293 0 2.3438 1.0508 2.3438 2.3438s-1.0508 2.3438-2.3438 2.3438zm0-12.938h-44.188c-1.293 0-2.3438-1.0508-2.3438-2.3438s1.0508-2.3438 2.3438-2.3438h44.188c1.293 0 2.3438 1.0508 2.3438 2.3438s-1.0508 2.3438-2.3438 2.3438zm0-12.953h-44.188c-1.293 0-2.3438-1.0508-2.3438-2.3438s1.0508-2.3438 2.3438-2.3438h44.188c1.293 0 2.3438 1.0508 2.3438 2.3438s-1.0508 2.3438-2.3438 2.3438zm-6.7969-26.344v-14.062l14.062 14.062z"/>
</svg>
