<?xml version="1.0" encoding="UTF-8"?>
<svg width="100pt" height="100pt" version="1.1" viewBox="0 0 100 100" xmlns="http://www.w3.org/2000/svg">
 <g>
  <path d="m39.699 45.199c0 3.6016 2.8984 6.6016 6.6016 6.6016 3.6016 0 6.6016-2.8984 6.6016-6.6016 0-3.6016-2.8984-6.6016-6.6016-6.6016-3.6016 0.10156-6.6016 3.0039-6.6016 6.6016z"/>
  <path d="m76.398 52.602v23.898l-15.098-18.5c-1.6992-2-4.8008-2-6.3984 0l-22.301 27.301h-4.8984l15.797-19.301-14.102-17.301c-1.6992-2-4.8008-2-6.3984 0l-15.801 19.402v-30.902c0-3.3008 2.6992-6.1016 6.1016-6.1016h41.602c0-0.60156-0.10156-1.1016-0.10156-1.6992 0-1 0.10156-2 0.19922-3h-41.699c-5.8984 0-10.801 4.8008-10.801 10.801v42.102c0 5.8984 4.8008 10.699 10.801 10.699h57.102c5.8984 0 10.801-4.8008 10.801-10.801l-0.003906-26.801c-1 0.19922-2 0.19922-3.1016 0.19922-0.59766 0.10156-1.1992 0.003906-1.6992 0.003906z"/>
  <path d="m78 10c-10.699 0-19.5 8.6992-19.5 19.5s8.8008 19.398 19.5 19.398 19.5-8.6992 19.5-19.5c0-10.797-8.6992-19.398-19.5-19.398zm9.1016 21.102-12.398 7.5c-1.3008 0.80078-3-0.19922-3-1.6992l-0.003906-15.004c0-1.5 1.6992-2.5 3-1.6992l12.398 7.5c1.2031 0.80078 1.2031 2.6016 0.003906 3.4023z"/>
 </g>
</svg>
