<?xml version="1.0" encoding="UTF-8"?>
<svg width="100pt" height="100pt" version="1.1" viewBox="0 0 100 100" xmlns="http://www.w3.org/2000/svg">
 <path d="m82.324 62.207v-24.426c2.5938-0.59375 4.543-2.918 4.543-5.6992 0-3.2188-2.625-5.8438-5.8438-5.8438-1.6875 0-3.207 0.71875-4.2695 1.8633l-21.164-12.211c0.16797-0.55078 0.26172-1.125 0.26172-1.7305 0-3.2188-2.6133-5.8438-5.8438-5.8438-3.2188 0-5.8438 2.625-5.8438 5.8438 0 0.60547 0.09375 1.1758 0.26172 1.7305l-10.582 6.1055-10.574 6.1055c-1.0742-1.1445-2.5938-1.8633-4.2812-1.8633-3.2188 0-5.8438 2.625-5.8438 5.8438 0 2.7812 1.9492 5.1055 4.543 5.6992v24.426c-2.6055 0.59375-4.543 2.9258-4.543 5.6992 0 3.2188 2.6133 5.8438 5.8438 5.8438 1.6875 0 3.207-0.71875 4.2812-1.875l10.574 6.1133 10.582 6.1055c-0.16797 0.54297-0.26172 1.125-0.26172 1.7188 0 3.2305 2.625 5.8438 5.8438 5.8438 3.2305 0 5.8438-2.6133 5.8438-5.8438 0-0.59375-0.09375-1.1758-0.26172-1.7188l10.582-6.1055 10.578-6.1133c1.0625 1.1562 2.582 1.875 4.2695 1.875 3.2305 0 5.8438-2.625 5.8438-5.8438 0-2.7695-1.9375-5.1055-4.5391-5.6992zm-28.043-44.062 10.582 6.1055 10.574 6.1133c-0.16797 0.54297-0.26172 1.125-0.26172 1.7188 0 0.60547 0.09375 1.1758 0.26172 1.7188l-11.574 6.6758c-0.29297-1.875-1.8242-3.5508-4.3867-4.7695-2.2461-1.0703-5.1016-1.7266-8.1758-1.8633v-13.969c1.168-0.26953 2.1992-0.88672 2.9805-1.7305zm5.1992 28.43c0.6875-0.32422 1.3008-0.6875 1.832-1.0742v4.5312c0 2.2305-4.832 4.7305-11.312 4.7305s-11.312-2.5-11.312-4.7305v-4.5312c0.53125 0.38672 1.1445 0.75 1.832 1.0742 2.5625 1.2188 5.9297 1.8945 9.4805 1.8945s6.918-0.67578 9.4805-1.8945zm-34.918-16.211 10.574-6.1055 10.582-6.1133c0.79297 0.84375 1.8125 1.457 2.9805 1.7305v13.969c-3.0625 0.13672-5.9258 0.79297-8.1758 1.8633-2.5625 1.2188-4.0938 2.9062-4.3867 4.7695l-11.574-6.6758c0.17578-0.54297 0.26172-1.1133 0.26172-1.7188 0-0.59375-0.085938-1.1758-0.26172-1.7188zm-4.2812 31.844v-24.426c1.1562-0.26172 2.1875-0.875 2.9805-1.7188l12.812 7.3945v13.074l-12.812 7.3945c-0.78125-0.84375-1.8242-1.4453-2.9805-1.7188zm28.418 17.906c-1.168 0.26953-2.1875 0.88672-2.9805 1.7305l-10.582-6.1133-10.574-6.1055c0.16797-0.54297 0.26172-1.125 0.26172-1.7188 0-0.60547-0.09375-1.1758-0.26172-1.7188l11.574-6.6875c0.28125 1.8867 1.8125 3.5625 4.375 4.793 2.25 1.0625 5.1133 1.7188 8.1875 1.8516zm-10.012-21.258v-4.457c0.53125 0.38672 1.1367 0.75 1.8242 1.0742 2.5625 1.2266 5.9258 1.8906 9.4883 1.8906s6.9258-0.66406 9.4883-1.8945c0.6875-0.32422 1.293-0.6875 1.8242-1.0742v4.4609c0 2.2305-4.832 4.7188-11.312 4.7188s-11.312-2.4922-11.312-4.7188zm36.75 10.77-10.574 6.1055-10.582 6.1133c-0.79297-0.84375-1.8125-1.457-2.9805-1.7305v-13.969c3.0742-0.13672 5.9492-0.79297 8.1875-1.8555 2.5625-1.2305 4.0938-2.9062 4.375-4.7812l11.574 6.6758c-0.16797 0.54297-0.26172 1.125-0.26172 1.7188 0 0.59766 0.09375 1.1797 0.26172 1.7227zm4.2812-7.418c-1.1562 0.26953-2.1875 0.875-2.9688 1.7188l-12.824-7.3945v-13.074l12.812-7.3945c0.79297 0.84375 1.8242 1.457 2.9805 1.7188z"/>
</svg>
