<?xml version="1.0" encoding="UTF-8"?>
<svg width="100pt" height="100pt" version="1.1" viewBox="0 0 100 100" xmlns="http://www.w3.org/2000/svg">
 <path d="m85.738 56.43c0.90234 0.85937 1.2656 2.1367 0.95312 3.3398s-1.2578 2.1406-2.4609 2.4492l-9 2.3086 2.5703 8.8594v0.003906c0.29297 1.1992-0.0625 2.4688-0.9375 3.3438s-2.1406 1.2305-3.3438 0.9375l-8.9219-2.5391-2.2891 9v-0.003906c-0.30469 1.2109-1.2461 2.1602-2.4492 2.4766-1.207 0.32031-2.4922-0.039063-3.3594-0.93359l-6.5-6.6719-6.3398 6.6094c-0.86719 0.89844-2.1523 1.2578-3.3594 0.9375-1.2031-0.32031-2.1445-1.2656-2.4492-2.4766l-2.2891-9-8.8906 2.5703c-1.207 0.30859-2.4883-0.039063-3.3672-0.91797-0.88281-0.87891-1.2344-2.1562-0.92578-3.3633l2.5508-8.8906-9-2.2812v0.003906c-1.2344-0.26172-2.2227-1.1836-2.5703-2.3984-0.34766-1.2109 0.003906-2.5156 0.91016-3.3945l6.4609-6.3984-6.4688-6.4688c-0.91406-0.85156-1.2812-2.1328-0.96484-3.3359 0.31641-1.2031 1.2734-2.1367 2.4844-2.4258l9-2.3086-2.5703-8.8906c-0.28906-1.1992 0.070312-2.4648 0.94531-3.332 0.87891-0.87109 2.1445-1.2188 3.3438-0.91797l8.9219 2.5391 2.2891-9c0.32031-1.1953 1.2617-2.125 2.4609-2.4375s2.4727 0.042969 3.3398 0.92969l6.4883 6.6484 6.3516-6.6406c0.87891-0.85156 2.1367-1.1797 3.3242-0.87109 1.1836 0.30859 2.1211 1.2109 2.4727 2.3828l2.2891 9 8.8906-2.5391v-0.003906c1.2031-0.32422 2.4883 0.015625 3.3711 0.89062 0.88281 0.875 1.2344 2.1562 0.92188 3.3594l-2.4297 8.8906 9 2.3086v0.003906c1.2031 0.29688 2.1484 1.2305 2.4648 2.4297 0.31641 1.2031-0.050781 2.4766-0.95703 3.3281l-6.4492 6.4609z" fill-rule="evenodd"/>
</svg>
