<?xml version="1.0" encoding="UTF-8"?>
<svg width="100pt" height="100pt" version="1.1" viewBox="0 0 100 100" xmlns="http://www.w3.org/2000/svg">
 <path d="m27.082 52.082v-4.168c0-1.1445-0.9375-2.082-2.082-2.082s-2.082 0.9375-2.082 2.082v4.168c0 1.1445 0.9375 2.082 2.082 2.082s2.082-0.9375 2.082-2.082z"/>
 <path d="m77.082 52.082v-4.168c0-1.1445-0.9375-2.082-2.082-2.082s-2.082 0.9375-2.082 2.082v4.168c0 1.1445 0.9375 2.082 2.082 2.082s2.082-0.9375 2.082-2.082z"/>
 <path d="m52.082 22.918h-4.168c-1.1445 0-2.082 0.9375-2.082 2.082s0.9375 2.082 2.082 2.082h4.168c1.1445 0 2.082-0.9375 2.082-2.082s-0.9375-2.082-2.082-2.082z"/>
 <path d="m52.082 72.918h-4.168c-1.1445 0-2.082 0.9375-2.082 2.082s0.9375 2.082 2.082 2.082h4.168c1.1445 0 2.082-0.9375 2.082-2.082s-0.9375-2.082-2.082-2.082z"/>
 <path d="m89.145 14.207-13.312-5.707c-0.51953-0.23047-1.125-0.23047-1.6445 0l-13.312 5.707c-1.543 0.66797-2.5195 2.168-2.5195 3.832v13.918c0 1.668 1 3.168 2.5195 3.832l13.312 5.707c0.25 0.10547 0.54297 0.16797 0.8125 0.16797s0.5625-0.0625 0.8125-0.16797l13.312-5.707c1.543-0.66797 2.5195-2.168 2.5195-3.832v-13.918c0-1.668-1-3.168-2.5195-3.832zm-16.227 22.211-10.418-4.457v-12.145l10.418 4.457zm2.082-15.773-9.293-3.9805 9.293-3.9805 9.293 3.9805zm12.5 11.312-10.418 4.457v-12.125l10.418-4.457v12.145z"/>
 <path d="m89.145 64.207-13.312-5.707c-0.51953-0.23047-1.125-0.23047-1.6445 0l-13.312 5.707c-1.543 0.66797-2.5195 2.168-2.5195 3.832v13.918c0 1.668 1 3.168 2.5195 3.832l13.312 5.707c0.25 0.10547 0.54297 0.16797 0.8125 0.16797s0.5625-0.0625 0.8125-0.16797l13.312-5.707c1.543-0.66797 2.5195-2.168 2.5195-3.832v-13.918c0-1.668-1-3.168-2.5195-3.832zm-16.227 22.211-10.418-4.457v-12.145l10.418 4.457zm2.082-15.773-9.293-3.9805 9.293-3.9805 9.293 3.9805zm12.5 11.312-10.418 4.457v-12.125l10.418-4.457v12.145z"/>
 <path d="m39.145 64.207-13.312-5.707c-0.51953-0.23047-1.125-0.23047-1.6445 0l-13.312 5.707c-1.543 0.66797-2.5195 2.168-2.5195 3.832v13.918c0 1.668 1 3.168 2.5195 3.832l13.312 5.707c0.25 0.10547 0.54297 0.16797 0.8125 0.16797s0.5625-0.0625 0.8125-0.16797l13.312-5.707c1.543-0.66797 2.5195-2.168 2.5195-3.832v-13.918c0-1.668-1-3.168-2.5195-3.832zm-16.227 22.211-10.418-4.457v-12.145l10.418 4.457zm2.082-15.773-9.293-3.9805 9.293-3.9805 9.293 3.9805zm12.5 11.312-10.418 4.457v-12.125l10.418-4.457v12.145z"/>
 <path d="m39.145 14.082-13.312-5.707c-0.51953-0.23047-1.125-0.23047-1.6445 0l-13.312 5.707c-1.543 0.66797-2.5195 2.168-2.5195 3.832v13.918c0 1.668 1 3.168 2.5195 3.832l13.312 5.707c0.25 0.10547 0.54297 0.16797 0.8125 0.16797s0.5625-0.0625 0.8125-0.16797l13.312-5.707c1.543-0.66797 2.5195-2.168 2.5195-3.832v-13.918c0-1.668-1-3.168-2.5195-3.832zm-16.227 22.211-10.418-4.457v-12.145l10.418 4.457zm2.082-15.773-9.293-3.9805 9.293-3.9805 9.293 3.9805zm12.5 11.312-10.418 4.457v-12.125l10.418-4.457v12.145z"/>
</svg>
