<?xml version="1.0" encoding="UTF-8"?>
<svg width="100pt" height="100pt" version="1.1" viewBox="0 0 100 100" xmlns="http://www.w3.org/2000/svg">
 <path d="m30.156 6c-0.50391 0.042969-0.97266 0.27734-1.3125 0.65625l-0.03125 0.03125c-0.011719 0.019531-0.019531 0.042969-0.03125 0.0625l-0.09375 0.09375c-0.011719 0.019531-0.019531 0.042969-0.03125 0.0625-0.023438 0.03125-0.042969 0.0625-0.0625 0.09375-0.011719 0.03125-0.023438 0.0625-0.03125 0.09375-0.023438 0.03125-0.042969 0.0625-0.0625 0.09375-0.011719 0.019531-0.019531 0.042969-0.03125 0.0625-0.023438 0.039062-0.042969 0.082031-0.0625 0.125v0.0625c-0.011719 0.042969-0.023438 0.082031-0.03125 0.125-0.039062 0.15234-0.058594 0.3125-0.0625 0.46875v73.625c0 1.1055 0.89453 2 2 2h50.688c1.1055 0 2-0.89453 2-2v-53.906c0-0.80469-0.48047-1.5312-1.2188-1.8438l-18-19.281c-0.38281-0.40234-0.91406-0.62891-1.4688-0.625h-31.969c-0.0625-0.003906-0.125-0.003906-0.1875 0zm2.1562 4h28.219v14.188c0 2.7734 1.9688 5.5312 5 5.5312l13.469 0.03125v49.906h-46.688zm32.219 3.2812 11.625 12.469-10.625-0.03125c-0.44141 0-1-0.61719-1-1.5312zm-45.75 3.9688c-1.0078 0.125-1.7578 0.98438-1.75 2l-0.03125 72.688c0 0.33984 0.085938 0.67188 0.25 0.96875 0.027344 0.054688 0.058594 0.10547 0.09375 0.15625l0.03125 0.03125c0.03125 0.042969 0.0625 0.085938 0.09375 0.125v0.03125c0.019531 0.011719 0.042969 0.019531 0.0625 0.03125l0.03125 0.0625c0.375 0.41406 0.91016 0.65234 1.4688 0.65625h53.406c0.53516 0.007812 1.0508-0.19922 1.4336-0.57422 0.37891-0.37891 0.59375-0.89062 0.59375-1.4258s-0.21484-1.0469-0.59375-1.4258c-0.38281-0.375-0.89844-0.58203-1.4336-0.57422h-51.438l0.03125-70.75c0.003906-0.57812-0.23828-1.1289-0.67188-1.5117-0.42969-0.38281-1.0078-0.55859-1.5781-0.48828zm22.062 14.312c-0.53125 0.023438-1.0312 0.25781-1.3867 0.65234-0.35938 0.39062-0.54297 0.91016-0.51953 1.4414s0.25781 1.0312 0.65234 1.3867c0.39062 0.35938 0.91016 0.54297 1.4414 0.51953l11.594 0.0625c0.53516 0.011719 1.0508-0.19531 1.4336-0.56641 0.38281-0.37109 0.60156-0.88281 0.60547-1.418 0.003907-0.53516-0.20703-1.0469-0.58203-1.4258-0.37891-0.37891-0.89062-0.59375-1.4258-0.58984l-11.625-0.0625c-0.0625-0.003906-0.125-0.003906-0.1875 0zm0 9.4062c-0.53125 0.023438-1.0312 0.25781-1.3867 0.65234-0.35938 0.39062-0.54297 0.91016-0.51953 1.4414s0.25781 1.0312 0.65234 1.3867c0.39062 0.35938 0.91016 0.54297 1.4414 0.51953l29.219 0.09375c0.53516 0.011719 1.0508-0.19531 1.4336-0.56641 0.38281-0.37109 0.60156-0.88281 0.60547-1.418 0.003907-0.53516-0.20703-1.0469-0.58203-1.4258-0.37891-0.37891-0.89062-0.59375-1.4258-0.58984l-29.25-0.09375c-0.0625-0.003906-0.125-0.003906-0.1875 0zm0 9.4375c-0.53125 0.023438-1.0312 0.25781-1.3867 0.65234-0.35938 0.39062-0.54297 0.91016-0.51953 1.4414s0.25781 1.0312 0.65234 1.3867c0.39062 0.35938 0.91016 0.54297 1.4414 0.51953l29.219 0.09375c0.53516 0.011719 1.0508-0.19531 1.4336-0.56641 0.38281-0.37109 0.60156-0.88281 0.60547-1.418 0.003907-0.53516-0.20703-1.0469-0.58203-1.4258-0.37891-0.37891-0.89062-0.59375-1.4258-0.58984l-29.25-0.09375c-0.0625-0.003906-0.125-0.003906-0.1875 0zm0.1875 9.4062c-0.53516-0.007812-1.0508 0.19922-1.4336 0.57422-0.37891 0.37891-0.59375 0.89062-0.59375 1.4258s0.21484 1.0469 0.59375 1.4258c0.38281 0.375 0.89844 0.58203 1.4336 0.57422l29.219 0.09375c0.53516 0.011719 1.0508-0.19531 1.4336-0.56641 0.38281-0.37109 0.60156-0.88281 0.60547-1.418 0.003907-0.53516-0.20703-1.0469-0.58203-1.4258-0.37891-0.37891-0.89062-0.59375-1.4258-0.58984zm-0.1875 9.4375c-0.53125 0.023438-1.0312 0.25781-1.3867 0.65234-0.35938 0.39062-0.54297 0.91016-0.51953 1.4414s0.25781 1.0312 0.65234 1.3867c0.39062 0.35938 0.91016 0.54297 1.4414 0.51953l29.219 0.09375c0.53516 0.011719 1.0508-0.19531 1.4336-0.56641 0.38281-0.37109 0.60156-0.88281 0.60547-1.418 0.003907-0.53516-0.20703-1.0469-0.58203-1.4258-0.37891-0.37891-0.89062-0.59375-1.4258-0.58984l-29.25-0.09375c-0.0625-0.003906-0.125-0.003906-0.1875 0z"/>
</svg>
