<?xml version="1.0" encoding="UTF-8"?>
<svg width="100pt" height="100pt" version="1.1" viewBox="0 0 100 100" xmlns="http://www.w3.org/2000/svg">
 <path d="m82.5 58.801c-2.6992 0-5.1992 1.1016-7 2.8984l-10.699-6.1992c0.60156-1.6992 1.1016-3.6016 1.1016-5.5s-0.39844-3.8008-1.1016-5.5l10.699-6.1992c1.8008 1.8008 4.3008 2.8984 7.1016 2.8984 5.5 0 10-4.5 10-10s-4.5-10-10-10-10 4.5-10 10c0 0.89844 0.10156 1.6992 0.39844 2.5l-10.699 6.1992c-2.3984-2.8984-5.6992-4.8984-9.5-5.5v-12.297c4.1992-1.1992 7.3984-5 7.3984-9.6016 0-5.5-4.5-10-10-10s-10.199 4.5-10.199 10c0 4.6016 3.1016 8.3984 7.3984 9.6016v12.301c-3.8008 0.60156-7.1016 2.6992-9.5 5.5l-10.699-6.1992c0.19922-0.80078 0.30078-1.6016 0.30078-2.5 0-5.5-4.5-10-10-10s-10 4.5-10 10 4.5 10 10 10c2.8008 0 5.3008-1.1016 7.1016-3l10.602 6.1992c-0.60156 1.6992-1 3.6016-1 5.6016 0 1.8984 0.39844 3.6992 1 5.3984l-10.801 6.1992c-1.8008-1.6992-4.1992-2.8008-6.8984-2.8008-5.5 0-10 4.5-10 10s4.5 10 10 10 10-4.5 10-10c0-0.89844-0.19922-1.8008-0.39844-2.6992l10.699-6.1992c2.3984 2.8984 5.6992 5 9.6016 5.6016v12.398c-4.1992 1.1992-7.3984 5-7.3984 9.6016 0 5.5 4.5 10 10 10s10-4.5 10-10c0-4.6016-3.1016-8.3984-7.3984-9.6016l-0.007813-12.402c3.8008-0.60156 7.1016-2.6016 9.3984-5.3984l10.801 6.1992c-0.19922 0.80078-0.39844 1.6016-0.39844 2.5 0 5.5 4.5 10 10 10s10-4.5 10-10c-0.003906-5.5-4.4023-10-9.9023-10zm0-32.301c2.6016 0 4.6992 2.1016 4.6992 4.6992 0 2.6016-2.0977 4.8008-4.6992 4.8008s-4.6992-2.1016-4.6992-4.6992c0-2.6016 2.0977-4.8008 4.6992-4.8008zm-65 9.5c-2.6016 0-4.6992-2.1016-4.6992-4.6992 0-2.6016 2.1016-4.6992 4.6992-4.6992 2.6016 0 4.6992 2.1016 4.6992 4.6992 0 2.5977-2.0977 4.6992-4.6992 4.6992zm0 37.5c-2.6016 0-4.6992-2.1016-4.6992-4.6992 0-2.6016 2.1016-4.6992 4.6992-4.6992 2.6016 0 4.6992 2.1016 4.6992 4.6992 0 2.5977-2.0977 4.6992-4.6992 4.6992zm27.801-61c0-2.6016 2.1016-4.6992 4.6992-4.6992 2.6016 0 4.6992 2.1016 4.6992 4.6992 0 2.6016-2.1016 4.6992-4.6992 4.6992-2.6016 0-4.6992-2.0977-4.6992-4.6992zm9.3984 75c0 2.6016-2.1016 4.6992-4.6992 4.6992-2.6016 0-4.6992-2.1016-4.6992-4.6992 0-2.6016 2.1016-4.6992 4.6992-4.6992 2.6016 0 4.6992 2.0977 4.6992 4.6992zm-4.6992-26.898c-5.8984 0-10.602-4.8008-10.602-10.602 0-5.8984 4.6992-10.602 10.602-10.602 5.8008 0 10.602 4.6992 10.602 10.602 0 5.8008-4.8008 10.602-10.602 10.602zm32.5 12.898c-2.6016 0-4.6992-2.1016-4.6992-4.6992 0-2.6016 2.1016-4.6992 4.6992-4.6992 2.6016 0 4.6992 2.1016 4.6992 4.6992 0 2.5977-2.0977 4.6992-4.6992 4.6992z"/>
</svg>
