<?xml version="1.0" encoding="UTF-8"?>
<svg width="100pt" height="100pt" version="1.1" viewBox="0 0 100 100" xmlns="http://www.w3.org/2000/svg">
 <g>
  <path d="m36.238 24.082c-3.7617 0-6.875 3.1133-6.875 6.875v38.082c0 3.7617 3.1133 6.8906 6.875 6.8906h12.902c14.277 0 25.93-11.652 25.93-25.93s-11.652-25.914-25.93-25.914zm0 6.2461h12.902c10.898 0 19.672 8.7695 19.672 19.672s-8.7734 19.672-19.672 19.672l-12.906-0.003906c-0.38281 0-0.62891-0.24609-0.62891-0.62891v-38.082c0-0.38281 0.24609-0.62891 0.62891-0.62891z"/>
  <path d="m71.934 46.875c-1.7227 0-3.1211 1.3984-3.1211 3.1211s1.3984 3.1211 3.1211 3.1211h16.75c1.7227 0 3.1172-1.3984 3.1211-3.1211-0.003907-1.7227-1.3984-3.1211-3.1211-3.1211z"/>
  <path d="m11.508 58.254c-0.83203 0-1.6289 0.32422-2.2188 0.91016-0.58984 0.58594-0.91797 1.3828-0.92187 2.2148-0.003907 0.83203 0.32812 1.6328 0.91797 2.2227 0.58594 0.58594 1.3867 0.91797 2.2227 0.91406h20.977c0.83203 0 1.625-0.33203 2.2109-0.92188 0.58594-0.58984 0.91406-1.3867 0.91016-2.2148 0-1.7266-1.3984-3.1211-3.1211-3.125z"/>
  <path d="m11.477 35.492c-0.83203-0.003907-1.6289 0.32422-2.2188 0.91016-0.58984 0.58594-0.91797 1.3828-0.92187 2.2148 0.003906 0.82812 0.33203 1.625 0.92187 2.2109 0.58984 0.58594 1.3867 0.91406 2.2188 0.91016h21.008c1.7227-0.003906 3.1211-1.3984 3.1211-3.1211 0-1.7266-1.3984-3.1211-3.1211-3.125z"/>
 </g>
</svg>
